<svg width="34" height="34" viewBox="0 0 34 34" fill="none" xmlns="http://www.w3.org/2000/svg">
<g clip-path="url(#clip0_71_1254)">
<path d="M16.9997 2.8335C9.17967 2.8335 2.83301 9.18016 2.83301 17.0002C2.83301 24.8202 9.17967 31.1668 16.9997 31.1668C24.8197 31.1668 31.1663 24.8202 31.1663 17.0002C31.1663 9.18016 24.8197 2.8335 16.9997 2.8335ZM18.9972 25.6277V26.4493C18.9972 27.4835 18.1472 28.3335 17.113 28.3335H17.0988C16.0647 28.3335 15.2147 27.4835 15.2147 26.4493V25.5993C13.3305 25.2027 11.6588 24.1685 10.9505 22.426C10.6247 21.6468 11.2338 20.7827 12.0838 20.7827H12.4238C12.948 20.7827 13.373 21.1368 13.5713 21.6327C13.9822 22.6952 15.0588 23.4318 17.1272 23.4318C19.9038 23.4318 20.5272 22.0435 20.5272 21.1793C20.5272 20.0035 19.9038 18.8985 16.7447 18.1477C13.2313 17.2977 10.823 15.8527 10.823 12.9485C10.823 10.5118 12.7922 8.92516 15.2288 8.401V7.551C15.2288 6.51683 16.0788 5.66683 17.113 5.66683H17.1272C18.1613 5.66683 19.0113 6.51683 19.0113 7.551V8.42933C20.9663 8.911 22.1988 10.1293 22.7372 11.631C23.0205 12.4102 22.4255 13.2318 21.5897 13.2318H21.2213C20.6972 13.2318 20.2722 12.8635 20.1305 12.3535C19.8047 11.2768 18.9122 10.5827 17.1272 10.5827C15.0022 10.5827 13.7272 11.546 13.7272 12.906C13.7272 14.096 14.648 14.8752 17.5097 15.6118C20.3713 16.3485 23.4313 17.581 23.4313 21.151C23.403 23.7435 21.4622 25.1602 18.9972 25.6277Z" fill="#FAFAFA"/>
</g>
<defs>
<clipPath id="clip0_71_1254">
<rect width="34" height="34" fill="white"/>
</clipPath>
</defs>
</svg>
