<svg width="22" height="22" viewBox="0 0 22 22" fill="none" xmlns="http://www.w3.org/2000/svg">
<path d="M8.89551 0.5H13.1152C13.4393 0.5 13.7036 0.740501 13.7393 1.0293V1.03223L14.0674 3.57324L14.1035 3.84961L14.3584 3.96484C14.7927 4.16054 15.2086 4.39875 15.6055 4.66992L15.8281 4.82227L16.0771 4.71973L18.5098 3.71875L18.5146 3.7168C18.8084 3.59278 19.1484 3.70829 19.3018 3.9707L19.3037 3.97363L21.418 7.52246V7.52344C21.5729 7.78898 21.5027 8.12026 21.2607 8.29688L21.2588 8.29883L19.1543 9.84961L18.9277 10.0166L18.9531 10.2969C18.9745 10.5357 18.9844 10.7627 18.9844 11C18.9844 11.2376 18.9745 11.4566 18.9443 11.6816L18.9043 11.9746L19.1426 12.1504L21.2422 13.6982H21.2432C21.4964 13.8892 21.5588 14.2152 21.4062 14.4766L19.293 18.0264L19.291 18.0293C19.1376 18.2918 18.7967 18.4074 18.5029 18.2832L18.498 18.2812L16.0664 17.2803L15.8164 17.1777L15.5938 17.3301C15.1968 17.6013 14.781 17.8394 14.3467 18.0352L14.0918 18.1504L14.0566 18.4268L13.7285 20.9678L13.7275 20.9707C13.6919 21.2594 13.4284 21.4999 13.1045 21.5H8.88477C8.5607 21.5 8.29638 21.2595 8.26074 20.9707V20.9678L7.93262 18.4268L7.89648 18.1504L7.6416 18.0352L7.31934 17.8809C7.0006 17.7186 6.69222 17.5335 6.39453 17.3301L6.17188 17.1777L5.92285 17.2803L3.49023 18.2812L3.48535 18.2832C3.19161 18.4072 2.85158 18.2917 2.69824 18.0293L2.69629 18.0264L0.582031 14.4766C0.427081 14.211 0.497344 13.8797 0.739258 13.7031L0.741211 13.7012L2.8457 12.1504L3.07227 11.9834L3.04688 11.7031C3.02553 11.4643 3.01562 11.2373 3.01562 11C3.01562 10.7623 3.02572 10.5358 3.04688 10.3096L3.07324 10.0283L2.8457 9.86035L0.745117 8.3125H0.746094C0.493571 8.12221 0.430348 7.79804 0.581055 7.53711L2.69629 3.97363L2.69824 3.9707C2.85159 3.70829 3.19161 3.59277 3.48535 3.7168L3.49023 3.71875L5.92285 4.71973L6.17188 4.82227L6.39453 4.66992C6.79141 4.39875 7.20731 4.16054 7.6416 3.96484L7.89648 3.84961L7.93262 3.57324L8.26074 1.03223V1.0293C8.296 0.743593 8.55712 0.500129 8.89551 0.5ZM11.0449 6.65039C8.59883 6.65057 6.58594 8.58783 6.58594 11C6.58594 13.4122 8.59883 15.3494 11.0449 15.3496C13.4912 15.3496 15.5049 13.4123 15.5049 11C15.5049 8.58772 13.4912 6.65039 11.0449 6.65039Z" fill="#5C736B" stroke="#5C736B"/>
</svg>
